<mxfile host="app.diagrams.net" modified="2022-07-13T14:09:09.127Z" agent="5.0 (Windows)" etag="erkfmMuKT_qOU6FcrMtx" version="20.1.1" type="github">
  <diagram id="C5RBs43oDa-KdzZeNtuy" name="Page-1">
    <mxGraphModel dx="1133" dy="660" grid="1" gridSize="10" guides="1" tooltips="1" connect="1" arrows="1" fold="1" page="1" pageScale="1" pageWidth="827" pageHeight="1169" math="0" shadow="0">
      <root>
        <mxCell id="WIyWlLk6GJQsqaUBKTNV-0" />
        <mxCell id="WIyWlLk6GJQsqaUBKTNV-1" parent="WIyWlLk6GJQsqaUBKTNV-0" />
        <mxCell id="WIyWlLk6GJQsqaUBKTNV-2" value="" style="rounded=0;html=1;jettySize=auto;orthogonalLoop=1;fontSize=11;endArrow=block;endFill=0;endSize=8;strokeWidth=1;shadow=0;labelBackgroundColor=none;edgeStyle=orthogonalEdgeStyle;" parent="WIyWlLk6GJQsqaUBKTNV-1" edge="1">
          <mxGeometry relative="1" as="geometry">
            <mxPoint x="420" y="180" as="sourcePoint" />
            <mxPoint x="420" y="230" as="targetPoint" />
          </mxGeometry>
        </mxCell>
        <mxCell id="q2xpn1eHvIPwnvbwXz1H-0" value="Начало" style="ellipse;whiteSpace=wrap;html=1;" vertex="1" parent="WIyWlLk6GJQsqaUBKTNV-1">
          <mxGeometry x="360" y="40" width="120" height="50" as="geometry" />
        </mxCell>
        <mxCell id="q2xpn1eHvIPwnvbwXz1H-1" value="" style="rounded=0;html=1;jettySize=auto;orthogonalLoop=1;fontSize=11;endArrow=block;endFill=0;endSize=8;strokeWidth=1;shadow=0;labelBackgroundColor=none;edgeStyle=orthogonalEdgeStyle;" edge="1" parent="WIyWlLk6GJQsqaUBKTNV-1">
          <mxGeometry relative="1" as="geometry">
            <mxPoint x="419.88" y="90" as="sourcePoint" />
            <mxPoint x="419.88" y="140" as="targetPoint" />
          </mxGeometry>
        </mxCell>
        <mxCell id="q2xpn1eHvIPwnvbwXz1H-2" value="Принять список User" style="shape=parallelogram;perimeter=parallelogramPerimeter;whiteSpace=wrap;html=1;fixedSize=1;" vertex="1" parent="WIyWlLk6GJQsqaUBKTNV-1">
          <mxGeometry x="360" y="140" width="120" height="50" as="geometry" />
        </mxCell>
        <mxCell id="q2xpn1eHvIPwnvbwXz1H-6" value="" style="edgeStyle=orthogonalEdgeStyle;rounded=0;orthogonalLoop=1;jettySize=auto;html=1;" edge="1" parent="WIyWlLk6GJQsqaUBKTNV-1" source="q2xpn1eHvIPwnvbwXz1H-3" target="q2xpn1eHvIPwnvbwXz1H-5">
          <mxGeometry relative="1" as="geometry" />
        </mxCell>
        <mxCell id="q2xpn1eHvIPwnvbwXz1H-3" value="Пока не дойдём до конца списка" style="shape=hexagon;perimeter=hexagonPerimeter2;whiteSpace=wrap;html=1;fixedSize=1;" vertex="1" parent="WIyWlLk6GJQsqaUBKTNV-1">
          <mxGeometry x="360" y="230" width="120" height="80" as="geometry" />
        </mxCell>
        <mxCell id="q2xpn1eHvIPwnvbwXz1H-8" value="" style="edgeStyle=orthogonalEdgeStyle;rounded=0;orthogonalLoop=1;jettySize=auto;html=1;" edge="1" parent="WIyWlLk6GJQsqaUBKTNV-1" source="q2xpn1eHvIPwnvbwXz1H-5" target="q2xpn1eHvIPwnvbwXz1H-7">
          <mxGeometry relative="1" as="geometry" />
        </mxCell>
        <mxCell id="q2xpn1eHvIPwnvbwXz1H-5" value="&lt;div&gt;Поприветствовать&lt;/div&gt;&lt;div&gt;User&lt;br&gt;&lt;/div&gt;" style="shape=parallelogram;perimeter=parallelogramPerimeter;whiteSpace=wrap;html=1;fixedSize=1;" vertex="1" parent="WIyWlLk6GJQsqaUBKTNV-1">
          <mxGeometry x="360" y="350" width="120" height="50" as="geometry" />
        </mxCell>
        <mxCell id="q2xpn1eHvIPwnvbwXz1H-14" value="" style="edgeStyle=orthogonalEdgeStyle;rounded=0;orthogonalLoop=1;jettySize=auto;html=1;" edge="1" parent="WIyWlLk6GJQsqaUBKTNV-1" source="q2xpn1eHvIPwnvbwXz1H-7" target="q2xpn1eHvIPwnvbwXz1H-13">
          <mxGeometry relative="1" as="geometry" />
        </mxCell>
        <mxCell id="q2xpn1eHvIPwnvbwXz1H-21" value="&lt;div&gt;Нет&lt;/div&gt;" style="edgeLabel;html=1;align=center;verticalAlign=middle;resizable=0;points=[];" vertex="1" connectable="0" parent="q2xpn1eHvIPwnvbwXz1H-14">
          <mxGeometry x="-0.8728" relative="1" as="geometry">
            <mxPoint as="offset" />
          </mxGeometry>
        </mxCell>
        <mxCell id="q2xpn1eHvIPwnvbwXz1H-7" value="Есть ли премиум подписка?" style="rhombus;whiteSpace=wrap;html=1;" vertex="1" parent="WIyWlLk6GJQsqaUBKTNV-1">
          <mxGeometry x="360" y="450" width="120" height="80" as="geometry" />
        </mxCell>
        <mxCell id="q2xpn1eHvIPwnvbwXz1H-19" style="edgeStyle=orthogonalEdgeStyle;rounded=0;orthogonalLoop=1;jettySize=auto;html=1;entryX=0;entryY=0.5;entryDx=0;entryDy=0;" edge="1" parent="WIyWlLk6GJQsqaUBKTNV-1" source="q2xpn1eHvIPwnvbwXz1H-13" target="q2xpn1eHvIPwnvbwXz1H-5">
          <mxGeometry relative="1" as="geometry">
            <mxPoint x="280" y="370" as="targetPoint" />
          </mxGeometry>
        </mxCell>
        <mxCell id="q2xpn1eHvIPwnvbwXz1H-13" value="&lt;div&gt;Показать рекламу&lt;/div&gt;" style="shape=parallelogram;perimeter=parallelogramPerimeter;whiteSpace=wrap;html=1;fixedSize=1;" vertex="1" parent="WIyWlLk6GJQsqaUBKTNV-1">
          <mxGeometry x="150" y="350" width="120" height="50" as="geometry" />
        </mxCell>
        <mxCell id="q2xpn1eHvIPwnvbwXz1H-20" value="" style="endArrow=classic;html=1;rounded=0;exitX=1;exitY=0.5;exitDx=0;exitDy=0;" edge="1" parent="WIyWlLk6GJQsqaUBKTNV-1" source="q2xpn1eHvIPwnvbwXz1H-7">
          <mxGeometry width="50" height="50" relative="1" as="geometry">
            <mxPoint x="340" y="380" as="sourcePoint" />
            <mxPoint x="370" y="370" as="targetPoint" />
            <Array as="points">
              <mxPoint x="480" y="560" />
              <mxPoint x="280" y="560" />
              <mxPoint x="120" y="560" />
              <mxPoint x="120" y="320" />
              <mxPoint x="280" y="320" />
              <mxPoint x="320" y="320" />
              <mxPoint x="320" y="360" />
            </Array>
          </mxGeometry>
        </mxCell>
        <mxCell id="q2xpn1eHvIPwnvbwXz1H-23" value="Да" style="edgeLabel;html=1;align=center;verticalAlign=middle;resizable=0;points=[];" vertex="1" connectable="0" parent="q2xpn1eHvIPwnvbwXz1H-20">
          <mxGeometry x="-0.821" y="2" relative="1" as="geometry">
            <mxPoint as="offset" />
          </mxGeometry>
        </mxCell>
        <mxCell id="q2xpn1eHvIPwnvbwXz1H-24" value="Конец" style="ellipse;whiteSpace=wrap;html=1;" vertex="1" parent="WIyWlLk6GJQsqaUBKTNV-1">
          <mxGeometry x="360" y="630" width="120" height="50" as="geometry" />
        </mxCell>
        <mxCell id="q2xpn1eHvIPwnvbwXz1H-25" value="" style="endArrow=classic;html=1;rounded=0;entryX=0.5;entryY=0;entryDx=0;entryDy=0;" edge="1" parent="WIyWlLk6GJQsqaUBKTNV-1" target="q2xpn1eHvIPwnvbwXz1H-24">
          <mxGeometry width="50" height="50" relative="1" as="geometry">
            <mxPoint x="470" y="380" as="sourcePoint" />
            <mxPoint x="780" y="470" as="targetPoint" />
            <Array as="points">
              <mxPoint x="560" y="380" />
              <mxPoint x="560" y="600" />
              <mxPoint x="420" y="600" />
            </Array>
          </mxGeometry>
        </mxCell>
        <mxCell id="q2xpn1eHvIPwnvbwXz1H-26" value="" style="endArrow=none;html=1;rounded=0;" edge="1" parent="WIyWlLk6GJQsqaUBKTNV-1">
          <mxGeometry width="50" height="50" relative="1" as="geometry">
            <mxPoint x="340" y="470" as="sourcePoint" />
            <mxPoint x="390" y="420" as="targetPoint" />
          </mxGeometry>
        </mxCell>
      </root>
    </mxGraphModel>
  </diagram>
</mxfile>
